<?xml version="1.0" encoding="UTF-8"?>
<svg id="Capa_1" data-name="Capa 1" xmlns="http://www.w3.org/2000/svg" viewBox="0 0 595.28 841.89">
  <defs>
    <style>
      .cls-1 {
        fill: #daa520;
      }

      .cls-2, .cls-3 {
        fill: #2e7d32;
      }

      .cls-4 {
        letter-spacing: .07em;
      }

      .cls-5 {
        letter-spacing: .06em;
      }

      .cls-6 {
        letter-spacing: .05em;
      }

      .cls-7 {
        letter-spacing: .06em;
      }

      .cls-3 {
        font-family: Roboto-Bold, Roboto;
        font-size: 98.07px;
        font-weight: 700;
      }

      .cls-8 {
        letter-spacing: .06em;
      }

      .cls-9 {
        letter-spacing: .06em;
      }
    </style>
  </defs>
  <text class="cls-3" transform="translate(135.05 542.47)"><tspan class="cls-8" x="0" y="0">E</tspan><tspan class="cls-7" x="60.66" y="0">c</tspan><tspan class="cls-9" x="117.74" y="0">o</tspan><tspan class="cls-5" x="179.44" y="0">M</tspan><tspan class="cls-6" x="271.4" y="0">e</tspan><tspan class="cls-4" x="329.36" y="0">X</tspan></text>
  <g>
    <path class="cls-2" d="M80.39,386.2c-11.4-29.7-58.07-75.3-58.07-75.3,0,0,4.51,8.75,3.71,32.88-.8,24.13-7.16,49.85-7.16,92.27s51.13,81.53,51.13,81.53c-4.82-78.61-29.39-131.38-29.39-131.38,28.64,22.54,37.83,140.08,37.83,140.08-.71-123.73,108.88-139.29,127.27-138.93,18.38.35,26.87-17.32,36.41-47.02,9.55-29.7,48.43-38.89,48.43-38.89-154.14-14.14-210.17,84.76-210.17,84.76ZM88.87,450.9c15.38-105.79,119.58-125.15,119.58-125.15-104.73,32.88-119.58,125.15-119.58,125.15Z"/>
    <path class="cls-1" d="M81.71,526.29s15-14.77,39.75-22.02c0,0-4.24-52.37,55.61-45.06,0,0,21.03-67.26,71.15-64.79,0,0-157.23-30.58-166.51,131.86ZM96.29,498.53s21.74-51.97,72.47-81.84c0,0-49.49,52.67-72.47,81.84Z"/>
  </g>
</svg>